<svg viewBox="0 0 42 42" fill="none" xmlns="http://www.w3.org/2000/svg" class="size-9 md:size-10"><path d="M21 41.8754C32.598 41.8754 42 32.5013 42 20.9377C42 9.37413 32.598 0 21 0C9.40202 0 0 9.37413 0 20.9377C0 32.5013 9.40202 41.8754 21 41.8754Z" fill="url(#snippe-icon-grad-default)"></path><path d="M24.696 22.3552L24.6301 30.2767L24.6259 30.3959L17.6905 34.3484L17.7564 26.3077L10.8622 22.3265L10.8004 22.2936L3.92676 18.3246V18.2671L10.8169 14.3474L10.8663 14.3721L17.8018 18.378L17.8224 18.3863L24.696 22.3552Z" fill="white"></path><path d="M35.0766 16.0813L35.0107 24.0028V24.1219L28.0711 28.0745L28.1371 20.0338L21.2428 16.0525L21.1852 16.0197L14.3115 12.0507V11.9932L21.2016 8.07352L21.2511 8.09817L28.1824 12.1041L28.203 12.1123L35.0766 16.0813Z" fill="white"></path><defs><linearGradient id="snippe-icon-grad-default" x1="18.8077" y1="-2.35837" x2="23.4902" y2="47.7041" gradientUnits="userSpaceOnUse"><stop stop-color="#B3D335"></stop><stop offset="0.18" stop-color="#AED035"></stop><stop offset="0.38" stop-color="#A1C838"></stop><stop offset="0.58" stop-color="#8CBC3B"></stop><stop offset="0.78" stop-color="#6EAA41"></stop><stop offset="0.85" stop-color="#63A443"></stop></linearGradient></defs></svg>